<?xml version="1.0" encoding="utf-8"?>
<!-- Generator: Adobe Illustrator 19.0.0, SVG Export Plug-In . SVG Version: 6.00 Build 0)  -->
<svg version="1.1" id="Layer_1" xmlns="http://www.w3.org/2000/svg" xmlns:xlink="http://www.w3.org/1999/xlink" x="0px" y="0px"
	 viewBox="0 0 512 512" style="enable-background:new 0 0 512 512;" xml:space="preserve">
<g id="XMLID_1_">
	<path id="XMLID_3_" d="M256,8.4v8.4c66,0,126.4,26.9,169.1,70.6c43.7,43.7,70.6,103.1,70.6,169.1l0,0v0.9l8.4-0.9h-8.4l0,0
		c0,66-26.9,126.4-70.6,169.1C381.4,469.3,322,496.2,256,496.2h-0.9l0.9,8.4v-8.4l0,0c-66,0-126.4-26.9-169.1-70.6
		c-43.7-43.7-70.6-103.1-70.6-169.1H8.8l7.4,0.9c0-0.9,0-0.9,0-0.9H8.8l7.4,0.9v-0.9v-0.9h-5.6h5.6l0,0h-5.6h5.6
		c0-66,26.9-126.4,70.6-169.1C130.6,42.7,190,15.8,256,15.8L256,8.4l0-8.4C114.8,0,0.5,114.3,0.5,255.5l0,0h8.4l-7.4-0.9
		c0,0.9,0,0.9,0,1.9C1.4,397.7,115.7,512,256.9,512l0,0l0,0l0,0l-0.9-8.4v7.4h0.9l-0.9-7.4v7.4c141.2,0,255.5-114.3,255.5-255.5l0,0
		l0,0l0,0h-7.4h7.4v-0.9l-7.4,0.9h7.4l0,0C511.5,114.3,397.2,0,256,0V8.4z"/>
	<polyline id="XMLID_4_" points="247.6,9.3 247.6,501.8 264.4,501.8 264.4,9.3 	"/>
	<polyline id="XMLID_5_" points="502.2,247.2 9.8,247.2 9.8,263.9 502.2,263.9 	"/>
	<path id="XMLID_6_" d="M235.6,2.8c0,0-28.8,22.3-57.6,65s-56.7,105.9-56.7,187.7s28.8,145,56.7,187.7c28.8,42.7,56.7,65,57.6,65
		l10.2-12.1l0,0c-2.8-1.9-29.7-25.1-56.7-66c-26-40.9-52-99.4-52-174.7c0-78.1,26.9-137.5,54.8-178.4c13.9-20.4,26.9-36.2,37.2-46.5
		c4.6-5.6,9.3-9.3,12.1-12.1c1.9-0.9,2.8-1.9,3.7-2.8l0.9-0.9l0,0L235.6,2.8L235.6,2.8z"/>
	<path id="XMLID_7_" d="M267.2,14.9L267.2,14.9c2.8,2.8,30.7,25.1,56.7,66c26,40.9,52,99.4,52,174.7c0,78.1-26.9,137.5-54.8,178.4
		c-13.9,20.4-26.9,36.2-37.2,46.5c-4.6,5.6-9.3,9.3-12.1,12.1c-1.9,0.9-2.8,1.9-3.7,2.8l-0.9,0.9l0,0l10.2,12.1
		c0,0,28.8-22.3,57.6-65c28.8-42.7,56.7-105.9,56.7-187.7s-28.8-145-56.7-187.7c-28.8-42.7-56.7-65-57.6-65L267.2,14.9L267.2,14.9z"
		/>
	<path id="XMLID_8_" d="M58.1,100.4c0,0.9,11.2,22.3,41.8,42.7c29.7,20.4,79.9,40.9,157,40.9s126.4-20.4,157-40.9
		s40.9-41.8,41.8-42.7l-13.9-7.4l1.9,0.9l-1.9-0.9l0,0l1.9,0.9l-1.9-0.9c0,0-10.2,18.6-37.2,38.1c-27.9,18.6-73.4,37.2-146.8,37.2
		c-74.3,0-119.9-19.5-147.7-38.1c-13.9-9.3-23.2-18.6-28.8-26c-2.8-3.7-4.6-6.5-5.6-8.4c-0.9-0.9-0.9-1.9-0.9-1.9v-0.9l0,0l-4.6,0.9
		l1.9-0.9l0,0l-1.9,0.9l1.9-0.9L58.1,100.4L58.1,100.4z"/>
	<path id="XMLID_9_" d="M72,418.1l-1.9-0.9L72,418.1L72,418.1l-1.9-0.9L72,418.1c0,0,10.2-18.6,37.2-38.1
		c27.9-18.6,73.4-37.2,146.8-37.2c74.3,0,119.9,19.5,147.7,38.1c13.9,9.3,23.2,18.6,28.8,26c2.8,3.7,4.6,6.5,5.6,8.4
		c0.9,0.9,0.9,1.9,0.9,1.9v0.9l0,0l1.9-0.9l-1.9,0.9l0,0l1.9-0.9l-1.9,0.9l13.9-7.4c0-0.9-11.2-22.3-41.8-42.7
		c-29.7-20.4-79.9-40.9-157-40.9s-126.4,20.4-157,40.9s-40.9,41.8-41.8,42.7L72,418.1L72,418.1z"/>
</g>
</svg>
